<?xml version="1.0" standalone="no"?>
<!DOCTYPE svg PUBLIC "-//W3C//DTD SVG 20010904//EN"
 "http://www.w3.org/TR/2001/REC-SVG-20010904/DTD/svg10.dtd">
<svg version="1.0" xmlns="http://www.w3.org/2000/svg"
 width="512.000000pt" height="512.000000pt" viewBox="0 0 512.000000 512.000000"
 preserveAspectRatio="xMidYMid meet">

<g transform="translate(0.000000,512.000000) scale(0.100000,-0.100000)"
fill="#000000" stroke="none">
<path d="M2055 4479 c-515 -48 -986 -265 -1353 -623 -208 -202 -345 -389 -462
-629 -514 -1051 -136 -2314 872 -2913 148 -88 251 -135 428 -194 561 -190
1164 -151 1695 109 514 252 902 673 1110 1205 48 122 111 350 121 439 11 93
-48 159 -127 143 -48 -9 -57 -19 -134 -136 -85 -131 -271 -319 -395 -401 -164
-109 -346 -184 -540 -226 -120 -26 -430 -26 -549 0 -392 85 -713 301 -935 632
-92 135 -171 325 -212 505 -24 104 -30 396 -10 510 25 147 62 264 122 389 71
150 147 261 256 376 258 272 581 426 958 455 143 12 171 22 198 71 18 33 8 96
-19 125 -28 30 -99 57 -264 99 -236 61 -532 86 -760 64z m449 -207 l39 -7 -74
-23 c-110 -35 -321 -143 -429 -219 -122 -87 -306 -272 -392 -393 -126 -177
-225 -404 -268 -617 -191 -925 445 -1831 1382 -1969 152 -22 431 -15 566 15
277 61 538 190 747 369 39 33 72 59 74 57 6 -7 -108 -237 -156 -315 -212 -344
-537 -629 -898 -788 -557 -246 -1186 -237 -1723 23 -135 65 -258 140 -367 224
-84 64 -266 242 -338 331 -223 276 -372 612 -433 975 -22 128 -24 450 -5 585
61 430 251 820 553 1135 338 354 801 578 1288 625 97 9 363 4 434 -8z"/>
<path d="M675 2321 c-125 -31 -221 -150 -241 -299 -14 -112 49 -272 137 -346
95 -81 233 -104 333 -56 151 73 222 258 168 437 -57 187 -233 304 -397 264z
m153 -137 c94 -46 149 -153 139 -270 -19 -241 -288 -272 -391 -44 -28 63 -28
170 1 225 26 49 57 79 103 99 51 22 89 19 148 -10z"/>
<path d="M1430 1330 c-96 -45 -135 -108 -135 -220 0 -59 5 -84 23 -118 35 -65
88 -119 148 -148 46 -23 64 -26 127 -22 87 4 140 33 184 100 25 38 28 50 28
132 0 101 -10 129 -72 197 -78 87 -212 121 -303 79z m153 -116 c74 -38 107
-88 107 -164 0 -44 -5 -56 -29 -81 -24 -24 -38 -29 -76 -29 -74 0 -129 38
-160 112 -20 50 -19 86 5 126 32 52 93 66 153 36z"/>
<path d="M3285 3696 c-27 -12 -57 -31 -65 -41 -8 -9 -51 -88 -95 -174 l-80
-156 -170 -25 c-93 -14 -183 -33 -200 -42 -72 -39 -115 -113 -115 -200 0 -82
28 -125 161 -251 l120 -113 -25 -151 c-14 -83 -26 -172 -26 -198 0 -128 134
-236 258 -207 26 6 111 45 190 86 l142 76 158 -83 c148 -77 161 -82 218 -81
76 1 141 35 181 96 39 58 41 129 9 310 l-26 148 120 116 c135 131 160 172 160
258 0 67 -23 119 -72 162 -49 43 -75 51 -253 77 l-159 23 -76 151 c-41 83 -86
163 -99 177 -63 67 -167 84 -256 42z m195 -347 c47 -93 95 -179 106 -190 17
-16 62 -26 214 -50 106 -16 195 -29 197 -29 20 0 -20 -48 -136 -164 -77 -77
-143 -151 -146 -164 -3 -14 8 -108 26 -208 17 -101 29 -191 25 -199 -5 -13
-39 2 -179 75 -116 60 -185 90 -206 90 -22 0 -88 -29 -196 -85 -158 -83 -195
-97 -195 -74 0 6 14 92 30 192 17 99 28 192 25 207 -3 16 -60 80 -145 165 -77
77 -140 145 -140 152 0 14 5 15 226 47 89 14 172 30 184 38 14 8 55 79 106
184 46 94 87 174 91 177 18 19 35 -6 113 -164z"/>
</g>
</svg>
