<?xml version="1.0" standalone="no"?>
<!DOCTYPE svg PUBLIC "-//W3C//DTD SVG 20010904//EN"
 "http://www.w3.org/TR/2001/REC-SVG-20010904/DTD/svg10.dtd">
<svg version="1.0" xmlns="http://www.w3.org/2000/svg"
 width="512.000000pt" height="512.000000pt" viewBox="0 0 512.000000 512.000000"
 preserveAspectRatio="xMidYMid meet">

<g transform="translate(0.000000,512.000000) scale(0.100000,-0.100000)"
fill="#000000" stroke="none">
<path d="M1742 4697 c-19 -6 -55 -30 -81 -53 -78 -71 -117 -161 -195 -454 -44
-165 -76 -235 -118 -256 -42 -22 -154 -27 -333 -17 -266 16 -393 -7 -471 -85
-54 -54 -69 -96 -68 -197 0 -103 6 -124 100 -373 50 -132 68 -194 72 -243 l5
-67 -44 -44 c-24 -24 -75 -64 -114 -89 -38 -25 -116 -76 -173 -113 -193 -126
-272 -228 -272 -351 0 -134 71 -215 348 -399 104 -68 203 -141 222 -162 31
-36 32 -40 28 -103 -4 -45 -19 -102 -48 -176 -113 -293 -124 -333 -125 -435 0
-74 4 -103 19 -130 30 -57 87 -109 146 -133 53 -21 67 -22 365 -22 218 0 318
-4 337 -12 51 -23 75 -81 163 -398 43 -155 79 -238 131 -294 97 -109 226 -117
379 -26 33 20 127 89 208 155 148 117 246 180 285 180 52 0 121 -44 327 -209
81 -65 172 -128 214 -149 65 -32 84 -37 145 -37 84 1 133 23 189 84 59 65 95
151 153 364 31 111 67 225 80 254 42 89 39 88 399 88 264 0 316 2 353 16 131
51 189 144 179 290 -5 77 -8 86 -131 434 -30 85 -46 147 -46 178 0 43 4 52 43
90 23 24 123 96 221 161 197 130 274 198 311 278 54 116 20 246 -92 348 -31
28 -134 103 -229 165 -210 138 -254 180 -254 239 0 55 25 139 94 319 66 173
86 250 85 332 0 113 -45 187 -143 235 -80 39 -192 50 -401 37 -169 -10 -287
-5 -327 13 -43 20 -82 110 -137 315 -96 355 -175 460 -346 460 -114 0 -178
-36 -430 -239 -66 -53 -148 -111 -183 -128 -56 -28 -66 -30 -100 -20 -53 16
-108 53 -262 177 -74 60 -159 124 -189 143 -102 65 -205 86 -289 59z m170
-221 c24 -14 105 -75 180 -135 175 -141 246 -187 331 -212 144 -44 239 -5 507
211 147 119 208 159 252 166 31 6 38 2 61 -28 33 -43 47 -81 108 -303 80 -292
137 -385 268 -437 54 -22 69 -23 366 -23 280 0 313 -2 338 -18 47 -31 35 -100
-62 -351 -32 -84 -67 -185 -76 -224 -22 -88 -17 -200 10 -257 32 -68 132 -155
315 -276 184 -122 260 -191 260 -234 0 -43 -67 -103 -250 -223 -186 -123 -276
-200 -318 -271 -20 -35 -27 -61 -30 -125 -5 -101 7 -149 94 -383 72 -195 91
-265 81 -306 -13 -50 -27 -52 -362 -52 -357 0 -378 -4 -465 -82 -70 -63 -108
-148 -174 -390 -59 -217 -93 -297 -131 -315 -37 -17 -111 25 -271 154 -235
189 -325 238 -435 238 -102 0 -197 -50 -389 -205 -206 -166 -273 -206 -316
-187 -31 15 -68 97 -109 247 -90 325 -117 388 -197 460 -85 76 -107 80 -463
80 -233 0 -316 3 -332 13 -51 29 -41 94 52 347 85 230 98 282 93 380 -8 146
-59 204 -338 390 -194 128 -260 187 -260 230 0 44 77 112 270 240 288 191 338
257 327 434 -4 69 -14 111 -52 216 -141 387 -148 420 -98 452 25 16 58 18 338
18 300 0 312 1 368 24 138 55 186 136 272 456 46 170 81 263 113 298 21 24 65
18 124 -17z"/>
<path d="M2390 3794 c-362 -44 -647 -176 -885 -408 -267 -262 -416 -592 -432
-962 -18 -414 127 -791 417 -1085 432 -437 1112 -549 1660 -274 400 201 676
559 775 1005 25 113 31 382 11 500 -101 620 -568 1099 -1173 1205 -89 16 -308
27 -373 19z m353 -139 c471 -84 868 -429 1021 -886 48 -144 61 -232 61 -414 0
-127 -5 -191 -19 -255 -90 -414 -342 -742 -714 -929 -89 -45 -250 -97 -357
-115 -114 -20 -322 -20 -442 -1 -646 105 -1124 689 -1100 1345 5 144 23 249
63 369 104 311 334 589 614 741 274 149 571 199 873 145z"/>
<path d="M2942 2434 c-20 -14 -22 -24 -22 -103 0 -97 8 -113 56 -113 46 0 59
24 59 113 0 73 -2 83 -24 100 -28 23 -40 24 -69 3z"/>
<path d="M3260 2170 c-17 -17 -20 -33 -20 -100 0 -67 3 -83 20 -100 11 -11 29
-20 40 -20 11 0 29 9 40 20 17 17 20 33 20 104 0 76 -2 86 -22 100 -30 21 -54
20 -78 -4z"/>
<path d="M2856 1678 c-11 -15 -16 -45 -16 -93 0 -83 16 -115 59 -115 47 0 61
26 61 118 0 60 -4 85 -16 96 -23 24 -70 20 -88 -6z"/>
</g>
</svg>
