<?xml version="1.0" standalone="no"?>
<!DOCTYPE svg PUBLIC "-//W3C//DTD SVG 20010904//EN"
 "http://www.w3.org/TR/2001/REC-SVG-20010904/DTD/svg10.dtd">
<svg version="1.0" xmlns="http://www.w3.org/2000/svg"
 width="512.000000pt" height="512.000000pt" viewBox="0 0 512.000000 512.000000"
 preserveAspectRatio="xMidYMid meet">

<g transform="translate(0.000000,512.000000) scale(0.100000,-0.100000)"
fill="#000000" stroke="none">
<path d="M2190 4214 c-711 -95 -1330 -550 -1639 -1206 -383 -811 -198 -1793
455 -2417 348 -333 786 -533 1268 -580 623 -61 1248 167 1696 619 332 335 541
768 600 1240 15 123 12 391 -5 525 -124 945 -879 1697 -1828 1820 -145 18
-404 18 -547 -1z m488 -201 l54 -6 -39 -21 c-208 -119 -378 -280 -454 -432
-36 -70 -42 -93 -46 -166 -9 -133 29 -239 118 -334 66 -68 150 -108 301 -143
68 -15 138 -35 156 -45 70 -36 80 -143 22 -240 -101 -169 -181 -385 -208 -560
-15 -100 -15 -115 0 -185 24 -117 61 -185 142 -266 135 -134 316 -198 598
-211 271 -13 644 53 911 161 33 14 62 23 64 22 7 -8 -61 -190 -112 -295 -163
-339 -427 -626 -752 -818 -120 -71 -221 -117 -362 -164 l-114 -39 -35 47 c-49
66 -157 176 -222 226 -179 138 -368 211 -689 266 -223 38 -249 46 -272 84 -26
42 -24 102 7 226 34 135 37 238 7 295 -88 167 -349 227 -652 150 -100 -26
-274 -91 -359 -134 -50 -25 -46 -30 -90 109 -50 159 -92 391 -92 512 l0 33 63
3 c34 1 125 11 202 23 393 57 620 169 708 350 42 85 62 199 48 265 -22 98
-104 191 -247 280 -85 53 -254 130 -361 165 -40 13 -73 27 -73 31 0 4 35 51
79 105 413 513 1051 778 1699 706z m495 -124 c380 -150 716 -434 928 -785 201
-333 299 -742 269 -1118 -9 -118 -25 -238 -33 -240 -1 -1 -15 -7 -32 -13 -16
-6 -77 -30 -135 -53 -244 -97 -504 -145 -790 -144 -168 0 -207 3 -284 22 -297
75 -432 255 -387 518 7 38 28 116 47 174 31 95 55 150 153 335 73 140 60 270
-38 358 -50 45 -86 61 -193 82 -148 30 -202 52 -256 100 -115 104 -137 252
-59 400 65 123 265 289 480 399 l88 45 70 -20 c39 -11 116 -38 172 -60z
m-2236 -838 c208 -74 350 -150 441 -235 64 -60 82 -92 82 -144 0 -50 -26 -136
-55 -182 -86 -136 -337 -230 -720 -270 -55 -6 -106 -13 -112 -15 -17 -6 -16
18 2 159 19 142 62 313 111 437 34 88 131 289 139 289 2 0 53 -17 112 -39z
m492 -1581 c36 -5 93 -23 128 -40 102 -50 112 -92 66 -277 -17 -69 -27 -137
-27 -189 -1 -73 2 -85 29 -130 44 -70 97 -99 230 -124 61 -12 157 -30 215 -41
303 -58 480 -146 659 -327 l95 -96 -29 -8 c-56 -14 -215 -28 -334 -28 -621 0
-1209 312 -1567 831 -34 49 -81 126 -103 169 l-42 79 70 36 c146 73 301 124
436 144 82 12 101 12 174 1z"/>
<path d="M3607 2942 c-13 -14 -17 -39 -17 -105 0 -77 2 -87 22 -101 30 -21 54
-20 78 4 28 28 30 178 2 203 -24 22 -65 21 -85 -1z"/>
<path d="M3816 2359 c-24 -19 -26 -26 -26 -103 0 -73 3 -85 23 -104 30 -28 52
-28 82 3 22 21 25 33 25 100 0 67 -3 79 -25 100 -29 30 -45 31 -79 4z"/>
<path d="M3362 2114 c-20 -14 -22 -24 -22 -103 0 -97 12 -121 62 -121 44 0 58
28 58 118 0 69 -3 85 -20 102 -24 24 -48 25 -78 4z"/>
</g>
</svg>
